<?xml version="1.0" encoding="UTF-8" standalone="no"?>
<!-- Created with Inkscape (http://www.inkscape.org/) -->

<svg
   width="256"
   height="256"
   viewBox="0 0 67.733334 67.733334"
   version="1.1"
   id="svg1"
   inkscape:version="1.4.2 (2aeb623e1d, 2025-05-12)"
   sodipodi:docname="alberto.svg"
   xmlns:inkscape="http://www.inkscape.org/namespaces/inkscape"
   xmlns:sodipodi="http://sodipodi.sourceforge.net/DTD/sodipodi-0.dtd"
   xmlns="http://www.w3.org/2000/svg"
   xmlns:svg="http://www.w3.org/2000/svg">
  <sodipodi:namedview
     id="namedview1"
     pagecolor="#ffffff"
     bordercolor="#000000"
     borderopacity="0.25"
     inkscape:showpageshadow="2"
     inkscape:pageopacity="0.0"
     inkscape:pagecheckerboard="0"
     inkscape:deskcolor="#d1d1d1"
     inkscape:document-units="mm"
     inkscape:zoom="1"
     inkscape:cx="397"
     inkscape:cy="241.5"
     inkscape:window-width="2508"
     inkscape:window-height="1371"
     inkscape:window-x="0"
     inkscape:window-y="0"
     inkscape:window-maximized="1"
     inkscape:current-layer="layer1" />
  <defs
     id="defs1" />
  <g
     inkscape:label="Layer 1"
     inkscape:groupmode="layer"
     id="layer1">
    <g
       id="g7">
      <rect
         style="fill:#5fbcd3;stroke-width:0.264583"
         id="rect1"
         width="52.916664"
         height="55.5625"
         x="7.9375"
         y="6.3499999"
         ry="15.08125" />
      <ellipse
         style="fill:#ffccaa;stroke-width:0.243024"
         id="path2"
         cx="34.528126"
         cy="31.882292"
         rx="10.980208"
         ry="12.13602" />
      <path
         style="fill:#000000;stroke-width:0.264583"
         d="m 24.606249,23.283333 c 1.629499,-2.871353 2.028908,-6.668001 4.872315,-8.687609 3.396563,-1.552352 4.157037,2.559376 5.280352,4.420961 2.753347,-0.37591 2.233157,-7.707114 6.454326,-4.841838 2.336253,2.562337 1.760929,6.374521 3.535938,9.167924 1.532133,1.111836 7.160874,-1.782298 4.865053,1.862413 -3.605871,2.100054 -7.98211,0.607091 -11.925367,1.01253 -3.613547,-0.728353 -7.266109,-0.677612 -10.929586,-0.602702 -2.732359,-1.035786 -7.78701,1.16949 -8.554329,-2.308075 1.480901,-1.586718 4.713368,-1.098033 6.401298,-0.0236 z"
         id="path1" />
      <g
         id="g5"
         transform="matrix(0.38632857,0,0,0.38632857,-7.3095584,23.416645)">
        <ellipse
           style="fill:#000000;stroke-width:0.247495"
           id="path3"
           cx="99.615623"
           cy="36.512497"
           rx="8.3343744"
           ry="7.4083328" />
        <ellipse
           style="fill:#000000;stroke-width:0.245275"
           id="ellipse3"
           cx="110.99271"
           cy="36.380207"
           rx="8.3343744"
           ry="7.276041" />
        <path
           style="fill:#000000;stroke-width:0.264583"
           d="m 117.475,32.279166 c 1.93356,2.16699 3.53168,4.623259 5.4481,6.786157 2.84845,3.470534 7.97933,4.024604 12.11816,3.121141 1.38091,-0.597523 4.76978,-1.126527 1.89881,0.44297 -3.45281,3.092369 -8.50257,2.406433 -12.7714,2.261077 -3.41734,-0.0012 -5.79532,-3.146464 -9.3395,-2.028012"
           id="path4" />
        <path
           style="fill:#000000;stroke-width:0.264583"
           d="m 93.610903,31.485416 c -1.93356,2.16699 -3.53168,4.623259 -5.4481,6.786157 -2.84845,3.470534 -7.97933,4.024604 -12.11816,3.121141 -1.38091,-0.597523 -4.76978,-1.126527 -1.89881,0.44297 3.45281,3.092369 8.50257,2.406433 12.7714,2.261077 3.41734,-0.0012 5.79532,-3.146464 9.3395,-2.028012"
           id="path5" />
      </g>
      <g
         id="g6"
         transform="matrix(1,0,0,0.77777768,-94.985417,-8.2902721)">
        <ellipse
           style="fill:#000000;stroke-width:0.15575"
           id="path6"
           cx="124.73159"
           cy="48.488789"
           rx="1.7003371"
           ry="2.311213" />
        <ellipse
           style="fill:#000000;stroke-width:0.15575"
           id="ellipse6"
           cx="132.91806"
           cy="48.348717"
           rx="1.7003371"
           ry="2.311213" />
      </g>
      <text
         xml:space="preserve"
         style="font-style:normal;font-variant:normal;font-weight:bold;font-stretch:normal;font-size:9.87778px;font-family:'Lapsus Pro';-inkscape-font-specification:'Lapsus Pro Bold';text-align:start;writing-mode:lr-tb;direction:ltr;text-anchor:start;fill:#000000;stroke-width:0.264583"
         x="19.314583"
         y="53.710415"
         id="text7"><tspan
           sodipodi:role="line"
           id="tspan7"
           style="font-style:normal;font-variant:normal;font-weight:bold;font-stretch:normal;font-size:9.87778px;font-family:'Lapsus Pro';-inkscape-font-specification:'Lapsus Pro Bold';stroke-width:0.264583"
           x="19.314583"
           y="53.710415">Alberto</tspan></text>
      <path
         style="fill:none;stroke:#000000;stroke-width:1.265;stroke-dasharray:none;stroke-opacity:1"
         d="m 34.660417,28.839583 c -0.723735,1.002187 -1.504611,1.965594 -2.172197,3.006793 -0.203976,0.406201 -0.246821,0.882532 -0.501157,1.264237 -0.133338,0.190651 -0.463067,0.296089 -0.489346,0.524747 0.273917,-0.05145 0.554615,-0.02842 0.83265,-0.03328 0.953072,0 1.906144,0 2.859216,0"
         id="path7" />
    </g>
  </g>
</svg>
